<svg width="35" height="34" viewBox="0 0 35 34" fill="none" xmlns="http://www.w3.org/2000/svg">
<path fill-rule="evenodd" clip-rule="evenodd" d="M23.1934 1.12782C24.9458 0.62713 26.7723 1.64185 27.273 3.39427C27.3573 3.6891 27.4 3.99423 27.4 4.30085V7.0634H30.7C32.5225 7.0634 34 8.54086 34 10.3634V30.1634C34 31.9859 32.5225 33.4634 30.7 33.4634H4.3C2.47746 33.4634 1 31.9859 1 30.1634H1.04406C1.01477 29.986 1 29.8062 1 29.6259V9.95799C1 8.48461 1.97673 7.18973 3.39342 6.78496L23.1934 1.12782ZM14.4311 30.1634H30.7V16.9634H27.4V23.9688C27.4 25.4422 26.4233 26.7371 25.0066 27.1418L14.4311 30.1634ZM27.4 10.3634H30.7V13.6634H27.4V10.3634ZM4.3 9.95795V29.6259L24.1 23.9688V4.30081L4.3 9.95795ZM20.8 13.6634C20.8 14.5747 20.0613 15.3134 19.15 15.3134C18.2387 15.3134 17.5 14.5747 17.5 13.6634C17.5 12.7521 18.2387 12.0134 19.15 12.0134C20.0613 12.0134 20.8 12.7521 20.8 13.6634Z" fill="white"/>
<path d="M27.273 3.39427L27.7538 3.25691L27.7538 3.25691L27.273 3.39427ZM23.1934 1.12782L23.3308 1.60858L23.3308 1.60858L23.1934 1.12782ZM27.4 7.0634H26.9V7.5634H27.4V7.0634ZM1 30.1634V29.6634H0.5V30.1634H1ZM1.04406 30.1634V30.6634H1.63336L1.53738 30.082L1.04406 30.1634ZM3.39342 6.78496L3.25606 6.3042L3.25606 6.3042L3.39342 6.78496ZM30.7 30.1634V30.6634H31.2V30.1634H30.7ZM14.4311 30.1634L14.2937 29.6826L14.4311 30.6634V30.1634ZM30.7 16.9634H31.2V16.4634H30.7V16.9634ZM27.4 16.9634V16.4634H26.9V16.9634H27.4ZM25.0066 27.1418L25.1439 27.6226L25.1439 27.6226L25.0066 27.1418ZM30.7 10.3634H31.2V9.86339H30.7V10.3634ZM27.4 10.3634V9.86339H26.9V10.3634H27.4ZM30.7 13.6634V14.1634H31.2V13.6634H30.7ZM27.4 13.6634H26.9V14.1634H27.4V13.6634ZM4.3 29.6259H3.8V30.2888L4.43736 30.1067L4.3 29.6259ZM4.3 9.95795L4.16264 9.47719L3.8 9.5808V9.95795H4.3ZM24.1 23.9688L24.2374 24.4495L24.6 24.3459V23.9688H24.1ZM24.1 4.30081H24.6V3.63794L23.9626 3.82004L24.1 4.30081ZM27.7538 3.25691C27.1772 1.23898 25.074 0.0705062 23.0561 0.647059L23.3308 1.60858C24.8177 1.18375 26.3674 2.04473 26.7923 3.53163L27.7538 3.25691ZM27.9 4.30085C27.9 3.94777 27.8508 3.59641 27.7538 3.25691L26.7923 3.53163C26.8637 3.78179 26.9 4.04068 26.9 4.30085H27.9ZM27.9 7.0634V4.30085H26.9V7.0634H27.9ZM30.7 6.5634H27.4V7.5634H30.7V6.5634ZM34.5 10.3634C34.5 8.26471 32.7987 6.5634 30.7 6.5634V7.5634C32.2464 7.5634 33.5 8.817 33.5 10.3634H34.5ZM34.5 30.1634V10.3634H33.5V30.1634H34.5ZM30.7 33.9634C32.7987 33.9634 34.5 32.2621 34.5 30.1634H33.5C33.5 31.7098 32.2464 32.9634 30.7 32.9634V33.9634ZM4.3 33.9634H30.7V32.9634H4.3V33.9634ZM0.5 30.1634C0.5 32.2621 2.20132 33.9634 4.3 33.9634V32.9634C2.7536 32.9634 1.5 31.7098 1.5 30.1634H0.5ZM1.04406 29.6634H1V30.6634H1.04406V29.6634ZM0.5 29.6259C0.5 29.8335 0.517008 30.0405 0.550736 30.2448L1.53738 30.082C1.51253 29.9314 1.5 29.7789 1.5 29.6259H0.5ZM0.5 9.95799V29.6259H1.5V9.95799H0.5ZM3.25606 6.3042C1.62471 6.7703 0.5 8.26137 0.5 9.95799H1.5C1.5 8.70785 2.32874 7.60917 3.53078 7.26573L3.25606 6.3042ZM23.0561 0.647059L3.25606 6.3042L3.53078 7.26573L23.3308 1.60858L23.0561 0.647059ZM30.7 29.6634H14.4311V30.6634H30.7V29.6634ZM30.2 16.9634V30.1634H31.2V16.9634H30.2ZM27.4 17.4634H30.7V16.4634H27.4V17.4634ZM27.9 23.9688V16.9634H26.9V23.9688H27.9ZM25.1439 27.6226C26.7753 27.1565 27.9 25.6654 27.9 23.9688H26.9C26.9 25.2189 26.0713 26.3176 24.8692 26.6611L25.1439 27.6226ZM14.5685 30.6442L25.1439 27.6226L24.8692 26.6611L14.2937 29.6826L14.5685 30.6442ZM30.7 9.86339H27.4V10.8634H30.7V9.86339ZM31.2 13.6634V10.3634H30.2V13.6634H31.2ZM27.4 14.1634H30.7V13.1634H27.4V14.1634ZM26.9 10.3634V13.6634H27.9V10.3634H26.9ZM4.8 29.6259V9.95795H3.8V29.6259H4.8ZM23.9626 23.488L4.16264 29.1451L4.43736 30.1067L24.2374 24.4495L23.9626 23.488ZM23.6 4.30081V23.9688H24.6V4.30081H23.6ZM4.43736 10.4387L24.2374 4.78157L23.9626 3.82004L4.16264 9.47719L4.43736 10.4387ZM19.15 15.8134C20.3374 15.8134 21.3 14.8508 21.3 13.6634H20.3C20.3 14.2985 19.7851 14.8134 19.15 14.8134V15.8134ZM17 13.6634C17 14.8508 17.9626 15.8134 19.15 15.8134V14.8134C18.5149 14.8134 18 14.2985 18 13.6634H17ZM19.15 11.5134C17.9626 11.5134 17 12.476 17 13.6634H18C18 13.0283 18.5149 12.5134 19.15 12.5134V11.5134ZM21.3 13.6634C21.3 12.476 20.3374 11.5134 19.15 11.5134V12.5134C19.7851 12.5134 20.3 13.0283 20.3 13.6634H21.3Z" fill="black"/>
</svg>
