<svg width="250" height="187" viewBox="0 0 250 187" fill="none" xmlns="http://www.w3.org/2000/svg">
<g filter="url(#filter0_d_17_7)">
<path d="M4 45C4 20.1472 24.1472 0 49 0H201C225.853 0 246 20.1472 246 45V134C246 158.853 225.853 179 201 179H49C24.1472 179 4 158.853 4 134V45Z" fill="#8EBF6E"/>
<path d="M4 45C4 20.1472 24.1472 0 49 0H201C225.853 0 246 20.1472 246 45V134C246 158.853 225.853 179 201 179H49C24.1472 179 4 158.853 4 134V45Z" fill="#8EBF6E"/>
</g>
<defs>
<filter id="filter0_d_17_7" x="0" y="0" width="250" height="187" filterUnits="userSpaceOnUse" color-interpolation-filters="sRGB">
<feFlood flood-opacity="0" result="BackgroundImageFix"/>
<feColorMatrix in="SourceAlpha" type="matrix" values="0 0 0 0 0 0 0 0 0 0 0 0 0 0 0 0 0 0 127 0" result="hardAlpha"/>
<feOffset dy="4"/>
<feGaussianBlur stdDeviation="2"/>
<feComposite in2="hardAlpha" operator="out"/>
<feColorMatrix type="matrix" values="0 0 0 0 0 0 0 0 0 0 0 0 0 0 0 0 0 0 0.25 0"/>
<feBlend mode="normal" in2="BackgroundImageFix" result="effect1_dropShadow_17_7"/>
<feBlend mode="normal" in="SourceGraphic" in2="effect1_dropShadow_17_7" result="shape"/>
</filter>
</defs>
</svg>
