<svg width="24" height="22" viewBox="0 0 24 22" fill="none" xmlns="http://www.w3.org/2000/svg">
<path fill-rule="evenodd" clip-rule="evenodd" d="M13.2029 0.760882C14.3699 0.188521 15.3879 -1.68162e-06 16.9672 1.7601e-05C21.0087 0.0167883 24 3.43218 24 7.78278C24 11.1035 22.1522 14.3113 18.7104 17.4131C16.9038 19.0412 14.5971 20.6524 12.9452 21.5096L12 22L11.0548 21.5096C9.4029 20.6524 7.09625 19.0412 5.28964 17.4131C1.84782 14.3113 0 11.1035 0 7.78278C0 3.38564 2.96339 0 7.04132 0C8.56394 0 9.63417 0.206352 10.8238 0.795928C11.238 1.0012 11.6271 1.24468 11.9891 1.52571C12.3655 1.22799 12.7708 0.972788 13.2029 0.760882Z" fill="white"/>
</svg>
